<mxfile host="app.diagrams.net" modified="2024-01-03T03:55:13.893Z" agent="Mozilla/5.0 (Windows NT 10.0; Win64; x64) AppleWebKit/537.36 (KHTML, like Gecko) Chrome/117.0.0.0 Safari/537.36" version="22.1.16" etag="25tayXIPyLK212ezEJWO" type="github">
  <diagram name="第 1 页" id="ZtTu7iyKOZliJs5EOGr8">
    <mxGraphModel>
      <root>
        <mxCell id="0" />
        <mxCell id="1" parent="0" />
      </root>
    </mxGraphModel>
  </diagram>
</mxfile>
